<svg xmlns="http://www.w3.org/2000/svg" id="Layer_1" enable-background="new 0 0 48 48" viewBox="0 0 48 48"><path fill="#ff7170" d="M43.1,24c0,2-2.3,3.5-2.9,5.3c-0.6,1.8,0.3,4.4-0.8,6c-1.1,1.5-3.9,1.5-5.4,2.6c-1.5,1.1-2.3,3.8-4.1,4.4
				c-1.8,0.6-4-1.1-5.9-1.1c-2,0-4.1,1.7-5.9,1.1c-1.8-0.6-2.6-3.2-4.1-4.4c-1.5-1.1-4.3-1.1-5.4-2.6c-1.1-1.5-0.2-4.1-0.8-6
				C7.2,27.5,4.9,26,4.9,24c0-2,2.3-3.5,2.9-5.3c0.6-1.8-0.3-4.4,0.8-6c1.1-1.5,3.9-1.5,5.4-2.6c1.5-1.1,2.3-3.8,4.1-4.4
				c1.8-0.6,4,1.1,5.9,1.1s4.1-1.7,5.9-1.1c1.8,0.6,2.6,3.2,4.1,4.4c1.5,1.1,4.3,1.1,5.4,2.6c1.1,1.5,0.2,4.1,0.8,6
				C40.8,20.5,43.1,22,43.1,24z"/><path fill="#fff" d="M22.1 14.9c0 1.7-1.4 3.2-3.2 3.2-1.7 0-3.2-1.4-3.2-3.2s1.4-3.2 3.2-3.2C20.7 11.7 22.1 13.1 22.1 14.9zM14.8 22.4c0 1.1-.9 2-2 2s-2-.9-2-2c0-1.1.9-2 2-2S14.8 21.3 14.8 22.4zM19.3 31.1c0 1.6-1.3 3-3 3-1.6 0-3-1.3-3-3 0-1.6 1.3-3 3-3C18 28.1 19.3 29.5 19.3 31.1zM30.2 34.1c0 1.7-1.4 3.1-3.1 3.1-1.7 0-3.1-1.4-3.1-3.1 0-1.7 1.4-3.1 3.1-3.1C28.8 31 30.2 32.3 30.2 34.1zM37 26.8c0 1.3-1.1 2.4-2.4 2.4s-2.4-1.1-2.4-2.4c0-1.3 1.1-2.4 2.4-2.4S37 25.5 37 26.8z"/><circle cx="32.5" cy="17.3" r="3.7" fill="#fff"/><path d="M2.6,28.5L1.2,29l1.4,4.3L4,32.9l-0.5-1.5l3.6-1.2c0.1,0.5,0,1.1,0,1.6c0,1.3-0.1,2.7,0.7,3.8c0.8,1.1,2.1,1.5,3.4,1.9
		c0.5,0.2,1.1,0.3,1.5,0.5l-2.2,3.1l-1.2-0.9l-0.9,1.2l3.7,2.7l0.9-1.2L11.8,42l2.2-3.1c0.3,0.4,0.6,0.8,0.9,1.3
		c0.8,1.1,1.6,2.3,2.9,2.7c1.2,0.4,2.5,0,3.8-0.5c0.6-0.2,1.1-0.4,1.6-0.5v3.8h-1.5v1.5h4.6v-1.5h-1.5v-3.8c0.5,0.1,1,0.3,1.6,0.5
		c0.9,0.3,1.8,0.6,2.7,0.6c0.3,0,0.7,0,1-0.2c1.3-0.4,2.1-1.6,2.9-2.7c0.3-0.5,0.6-0.9,0.9-1.3l2.2,3.1l-1.2,0.9l0.9,1.2l3.7-2.7
		l-0.9-1.2l-1.2,0.9l-2.2-3.1c0.5-0.2,1-0.4,1.5-0.5c1.3-0.4,2.6-0.8,3.4-1.9c0.8-1.1,0.8-2.5,0.7-3.8c0-0.6,0-1.1,0-1.6l3.6,1.2
		L44,32.9l1.4,0.5l1.4-4.3l-1.4-0.5L44.9,30l-3.6-1.2c0.2-0.4,0.5-0.8,0.9-1.2c0.8-1,1.7-2.2,1.7-3.6s-0.9-2.6-1.7-3.6
		c-0.3-0.4-0.6-0.8-0.9-1.2l3.6-1.2l0.5,1.5l1.4-0.5l-1.4-4.3L44,15.1l0.5,1.5l-3.6,1.2c-0.1-0.5,0-1.1,0-1.6c0-1.3,0.1-2.7-0.7-3.8
		c-0.8-1.1-2.1-1.5-3.4-1.9c-0.5-0.2-1.1-0.3-1.5-0.5l2.2-3.1l1.2,0.9l0.9-1.2l-3.7-2.7l-0.9,1.2L36.2,6L33.9,9
		c-0.3-0.4-0.6-0.8-0.9-1.3c-0.8-1.1-1.6-2.3-2.9-2.7c-1.2-0.4-2.5,0-3.8,0.5c-0.6,0.2-1.1,0.4-1.6,0.5V2.3h1.5V0.8h-4.6v1.5h1.5
		v3.8c-0.5-0.1-1-0.3-1.6-0.5c-1.2-0.4-2.5-0.9-3.8-0.5c-1.3,0.4-2.1,1.6-2.9,2.7c-0.3,0.5-0.6,0.9-0.9,1.3L11.8,6l1.2-0.9l-0.9-1.2
		L8.5,6.5l0.9,1.2l1.2-0.9l2.2,3.1c-0.5,0.2-1,0.4-1.5,0.5c-1.3,0.4-2.6,0.8-3.4,1.9c-0.8,1.1-0.8,2.5-0.7,3.8c0,0.6,0,1.1,0,1.6
		l-3.6-1.2L4,15.1l-1.4-0.5L1.2,19l1.4,0.5L3.1,18l3.6,1.2c-0.2,0.4-0.5,0.8-0.9,1.2c-0.8,1-1.7,2.2-1.7,3.6c0,1.4,0.9,2.6,1.7,3.6
		c0.3,0.4,0.6,0.8,0.9,1.2L3.1,30L2.6,28.5z M5.6,24c0-0.9,0.7-1.8,1.4-2.7c0.6-0.7,1.2-1.5,1.4-2.4C8.7,18,8.7,17,8.7,16.1
		c0-1.1,0-2.2,0.4-2.9c0.5-0.7,1.5-1,2.6-1.3c0.9-0.3,1.9-0.6,2.6-1.1c0.7-0.5,1.3-1.4,1.8-2.1c0.7-0.9,1.3-1.8,2.1-2.1
		c0.8-0.2,1.8,0.1,2.8,0.5C22.1,7.3,23,7.7,24,7.7s1.9-0.3,2.9-0.7c1.1-0.4,2.1-0.7,2.8-0.5c0.8,0.3,1.4,1.2,2.1,2.1
		c0.5,0.8,1.1,1.6,1.8,2.1c0.8,0.6,1.7,0.8,2.6,1.1c1.1,0.3,2.1,0.6,2.6,1.3c0.5,0.7,0.5,1.7,0.4,2.9c0,1,0,2,0.3,2.9
		c0.3,0.9,0.9,1.6,1.4,2.4c0.7,0.9,1.4,1.8,1.4,2.7s-0.7,1.8-1.4,2.7c-0.6,0.7-1.2,1.5-1.4,2.4c-0.3,0.9-0.3,1.9-0.3,2.9
		c0,1.1,0,2.2-0.4,2.9c-0.5,0.7-1.5,1-2.6,1.3c-0.9,0.3-1.9,0.6-2.6,1.1c-0.7,0.5-1.3,1.4-1.8,2.1c-0.7,0.9-1.3,1.8-2.1,2.1
		c-0.8,0.2-1.8-0.1-2.8-0.5c-0.9-0.3-1.9-0.7-2.9-0.7c-1,0-1.9,0.3-2.9,0.7c-1.1,0.4-2.1,0.7-2.8,0.5c-0.8-0.3-1.4-1.2-2.1-2.1
		c-0.5-0.8-1.1-1.6-1.8-2.1c-0.8-0.6-1.7-0.8-2.6-1.1c-1.1-0.3-2.1-0.6-2.6-1.3c-0.5-0.7-0.5-1.7-0.4-2.9c0-1,0-2-0.3-2.9
		c-0.3-0.9-0.9-1.6-1.4-2.4C6.3,25.8,5.6,24.9,5.6,24z"/><path d="M19 18.8c2.2 0 3.9-1.8 3.9-3.9S21.1 11 19 11s-3.9 1.8-3.9 3.9S16.8 18.8 19 18.8zM19 12.5c1.3 0 2.4 1.1 2.4 2.4s-1.1 2.4-2.4 2.4-2.4-1.1-2.4-2.4S17.6 12.5 19 12.5zM12.8 25.2c1.5 0 2.8-1.2 2.8-2.8s-1.2-2.8-2.8-2.8c-1.5 0-2.8 1.2-2.8 2.8S11.3 25.2 12.8 25.2zM12.8 21.1c.7 0 1.3.6 1.3 1.3s-.6 1.3-1.3 1.3c-.7 0-1.3-.6-1.3-1.3S12.1 21.1 12.8 21.1zM16.3 27.4c-2.1 0-3.7 1.7-3.7 3.7 0 2.1 1.7 3.7 3.7 3.7s3.7-1.7 3.7-3.7C20.1 29.1 18.4 27.4 16.3 27.4zM16.3 33.3c-1.2 0-2.2-1-2.2-2.2 0-1.2 1-2.2 2.2-2.2s2.2 1 2.2 2.2C18.6 32.3 17.6 33.3 16.3 33.3zM27.1 37.9c2.1 0 3.9-1.7 3.9-3.9s-1.7-3.9-3.9-3.9-3.9 1.7-3.9 3.9S25 37.9 27.1 37.9zM27.1 31.7c1.3 0 2.4 1.1 2.4 2.4s-1.1 2.4-2.4 2.4-2.4-1.1-2.4-2.4S25.8 31.7 27.1 31.7zM34.5 23.7c-1.8 0-3.2 1.4-3.2 3.2s1.4 3.2 3.2 3.2 3.2-1.4 3.2-3.2S36.3 23.7 34.5 23.7zM34.5 28.5c-.9 0-1.7-.8-1.7-1.7s.8-1.7 1.7-1.7 1.7.8 1.7 1.7S35.5 28.5 34.5 28.5zM32.5 21.7c2.5 0 4.5-2 4.5-4.5s-2-4.5-4.5-4.5-4.5 2-4.5 4.5S30.1 21.7 32.5 21.7zM32.5 14.3c1.6 0 3 1.3 3 3s-1.3 3-3 3-3-1.3-3-3S30.9 14.3 32.5 14.3z"/></svg>